<svg xmlns="http://www.w3.org/2000/svg" viewBox="0 0 512 512" id="online-shop">
  <path fill="#353535" d="M7.5 381h497v30a20 20 0 0 1-20 20h-457a20 20 0 0 1-20-20v-30Z"></path>
  <path fill="#fff" d="M56 151h400a20 20 0 0 1 20 20v210H36V171a20 20 0 0 1 20-20Z"></path>
  <path fill="#bdd9f2" d="M106 101h300v280H106z"></path>
  <rect width="80" height="100" x="156" y="211" fill="#d95964" rx="10" ry="10" transform="rotate(90 196 261)"></rect>
  <path fill="#d95964" d="M81 81h116.67v41.67A58.33 58.33 0 0 1 139.33 181 58.33 58.33 0 0 1 81 122.67V81Z"></path>
  <path fill="#d95964" d="M197.67 81h116.66v41.67A58.33 58.33 0 0 1 256 181a58.33 58.33 0 0 1-58.33-58.33V81zm116.66 0H431v41.67A58.33 58.33 0 0 1 372.67 181a58.33 58.33 0 0 1-58.33-58.33V81h-.01z"></path>
  <path fill="#161515" d="M504.5 373.5h-21V171a27.54 27.54 0 0 0-27.5-27.5h-20.9a65.57 65.57 0 0 0 3.4-20.83V81a7.5 7.5 0 0 0-7.5-7.5H81a7.5 7.5 0 0 0-7.5 7.5v41.67a65.57 65.57 0 0 0 3.4 20.83H56A27.54 27.54 0 0 0 28.5 171v202.5h-21A7.5 7.5 0 0 0 0 381v30a27.54 27.54 0 0 0 27.5 27.5h457A27.54 27.54 0 0 0 512 411v-30a7.5 7.5 0 0 0-7.5-7.5Zm-48.5-215a12.52 12.52 0 0 1 12.5 12.5v202.5h-55V174.25a66.44 66.44 0 0 0 14.35-15.75Zm-316.67 30a65.91 65.91 0 0 0 58.34-35.33 65.82 65.82 0 0 0 116.66 0 65.8 65.8 0 0 0 84.17 30V373.5h-285V183.21a65.46 65.46 0 0 0 25.83 5.29Zm65.84-100h101.66v34.17a50.83 50.83 0 1 1-101.66 0Zm218.33 34.17a50.84 50.84 0 0 1-101.67 0V88.5H423.5ZM88.5 88.5h101.67v34.17a50.84 50.84 0 0 1-101.67 0Zm-45 82.5A12.52 12.52 0 0 1 56 158.5h28.15a66.44 66.44 0 0 0 14.35 15.75V373.5h-55ZM497 411a12.52 12.52 0 0 1-12.5 12.5h-457A12.52 12.52 0 0 1 15 411v-22.5h482Z"></path>
  <path fill="#161515" d="M156 308.5h80a17.52 17.52 0 0 0 17.5-17.5v-60a17.52 17.52 0 0 0-17.5-17.5h-80a17.52 17.52 0 0 0-17.5 17.5v60a17.52 17.52 0 0 0 17.5 17.5zm-2.5-77.5a2.5 2.5 0 0 1 2.5-2.5h80a2.5 2.5 0 0 1 2.5 2.5v60a2.5 2.5 0 0 1-2.5 2.5h-80a2.5 2.5 0 0 1-2.5-2.5zM296 288.5h70a7.5 7.5 0 0 0 0-15h-70a7.5 7.5 0 0 0 0 15zm20-40h50a7.5 7.5 0 0 0 0-15h-50a7.5 7.5 0 0 0 0 15zM138.5 341a7.5 7.5 0 0 0 7.5 7.5h220a7.5 7.5 0 0 0 0-15H146a7.5 7.5 0 0 0-7.5 7.5z"></path>
</svg>
